<svg xmlns="http://www.w3.org/2000/svg" width="48.004" height="48" viewBox="0 0 48.004 48"><circle fill="#1F1034" cx="24.002" cy="24" r="23"/><path fill="#FFF" d="M31.595 25.342c1.226-1.607 1.964-3.608 1.964-5.785C33.56 14.28 29.28 10 24 10c-5.277 0-9.557 4.28-9.557 9.557 0 2.184.74 4.187 1.97 5.797l-5.224 7.055 5.32.71 2.07 4.86 5.427-6.556L29.43 38l2.096-4.904 5.287-.677-5.218-7.078zm-7.593-10.538c2.624 0 4.75 2.128 4.75 4.753S26.625 24.31 24 24.31s-4.75-2.128-4.75-4.753 2.126-4.753 4.75-4.753z"/></svg>