<svg xmlns="http://www.w3.org/2000/svg" viewBox="0 0 162 162"><style>.st0{fill:#2c1e3f}.st1{fill:#fff}</style><path class="st0" d="M1 1h160v160H1z" id="Layer_2"/><g id="Layer_1"><path class="st1" d="M157.4 80.5l-47.1-13.9L97.8 96 68 114.7l12.6 42.7c.1.4.3.6.5.6s.3-.2.5-.6l16.8-57.1c.3-.8 1.1-1.7 2-2l57.1-16.8c.7-.3.7-.7-.1-1zM64.2 67.4l30.2-19L81.5 4.6c-.2-.4-.3-.6-.5-.6s-.3.2-.5.6L63.7 61.7c-.3.8-1.1 1.7-2 2L4.6 80.5c-.8.3-.8.7 0 .9l22.7 6.7 2.4.7 22.5 6.6 12-28z"/><path class="st1" d="M70.4 72.7l-18 42.5 39.1-24.6 18-42.5-39.1 24.6z"/></g></svg>