<svg xmlns="http://www.w3.org/2000/svg" width="162" height="162" viewBox="0 0 162 162"><path fill="#FFF" d="M81 9.5c-39.765 0-72 32.235-72 72s32.235 72 72 72 72-32.235 72-72-32.235-72-72-72zm.078 26.425l.192.001c12.367.104 22.339 10.197 22.234 22.499-.107 12.417-10.111 22.239-22.595 22.239l-.222-.001c-12.167-.115-22.082-10.297-22-22.59.085-12.228 10.135-22.147 22.391-22.148zm41.43 78.962c-.521 9.942-12.046 14.79-19.979 17.742-12.057 4.485-26.103 5.311-38.451 1.479-9.556-2.963-26.89-9.67-24.4-22.611.729-3.788 1.335-16.921 2.425-20.607 1.277-4.332 4.027-7.798 7.824-10.267 2.224-1.447 4.545-2.746 6.879-4.073 5.464 7.273 14.086 12.022 23.806 12.115l.298.001c8.152 0 15.805-3.11 21.548-8.76a30.54 30.54 0 0 0 2.904-3.302c8.979 3.947 15.171 10.312 16.495 20.838.34 2.703.793 14.747.651 17.445z"/></svg>