<?xml version="1.0" encoding="utf-8"?>
<!-- Generator: Adobe Illustrator 16.0.4, SVG Export Plug-In . SVG Version: 6.00 Build 0)  -->
<!DOCTYPE svg PUBLIC "-//W3C//DTD SVG 1.1//EN" "http://www.w3.org/Graphics/SVG/1.1/DTD/svg11.dtd">
<svg version="1.1" id="Layer_1" xmlns="http://www.w3.org/2000/svg" xmlns:xlink="http://www.w3.org/1999/xlink" x="0px" y="0px"
	 width="162px" height="162px" viewBox="0 0 162 162" enable-background="new 0 0 162 162" xml:space="preserve">
<path fill="#FFFFFF" d="M81,9.5c-39.765,0-72,32.235-72,72s32.235,72,72,72s72-32.235,72-72S120.765,9.5,81,9.5z M81.078,35.925
	c0.064,0,0.128,0,0.192,0.001c12.367,0.104,22.339,10.197,22.234,22.499c-0.107,12.417-10.111,22.239-22.595,22.239
	c-0.074,0-0.147,0-0.222-0.001c-12.167-0.115-22.082-10.297-22-22.59C58.772,45.845,68.822,35.926,81.078,35.925z M122.508,114.887
	c-0.521,9.942-12.046,14.79-19.979,17.742c-12.057,4.485-26.103,5.311-38.451,1.479c-9.556-2.963-26.89-9.67-24.4-22.611
	c0.729-3.788,1.335-16.921,2.425-20.607c1.277-4.332,4.027-7.798,7.824-10.267c2.224-1.447,4.545-2.746,6.879-4.073
	c5.464,7.273,14.086,12.022,23.806,12.115l0.298,0.001c8.152,0,15.805-3.11,21.548-8.76c1.056-1.038,2.023-2.143,2.904-3.302
	c8.979,3.947,15.171,10.312,16.495,20.838C122.197,100.145,122.65,112.189,122.508,114.887z"/>
</svg>
