<?xml version="1.0" encoding="utf-8"?>
<!-- Generator: Adobe Illustrator 16.0.4, SVG Export Plug-In . SVG Version: 6.00 Build 0)  -->
<!DOCTYPE svg PUBLIC "-//W3C//DTD SVG 1.1//EN" "http://www.w3.org/Graphics/SVG/1.1/DTD/svg11.dtd">
<svg version="1.1" id="Layer_1" xmlns="http://www.w3.org/2000/svg" xmlns:xlink="http://www.w3.org/1999/xlink" x="0px" y="0px"
	 width="80px" height="60px" viewBox="0 0 80 60" enable-background="new 0 0 80 60" xml:space="preserve">
<g>
	<path fill="#FF7B7B" d="M17.519,54.189c-1.464,0.274-2.858,0.521-4.244,0.808c-0.651,0.135-1.203,0.076-1.623-0.528
		c-0.895,0.412-1.771,0.819-2.651,1.217c-0.888,0.401-1.395,0.217-1.793-0.65c-0.83-1.797-1.656-3.598-2.479-5.398
		c-0.417-0.91-0.229-1.393,0.699-1.822c0.856-0.396,1.715-0.789,2.618-1.203c-0.21-0.721,0.154-1.172,0.685-1.596
		c7.948-6.353,15.885-12.72,23.828-19.081c0.796-0.638,1.494-0.457,1.932,0.489c0.595,1.287,1.192,2.573,1.771,3.868
		c0.148,0.332,0.309,0.503,0.721,0.544c6.008,0.598,8.958,7.025,5.494,11.96c-0.213,0.304-0.238,0.521-0.084,0.845
		c0.609,1.278,1.192,2.57,1.78,3.86c0.476,1.039,0.175,1.64-0.931,1.849c-3.952,0.748-7.903,1.491-11.854,2.237
		c-0.217,0.042-0.435,0.093-0.722,0.155c0.283,0.613,0.551,1.18,0.803,1.752c0.371,0.842,0.068,1.49-0.804,1.697
		c-3.453,0.822-6.908,1.64-10.363,2.451c-0.829,0.194-1.189,0.004-1.551-0.776C18.344,55.991,17.943,55.113,17.519,54.189z
		 M32.976,28.376c-7.538,6.041-15.046,12.058-22.55,18.069c0.985,2.146,1.942,4.228,2.909,6.332
		c9.464-1.778,18.911-3.553,28.399-5.334C38.809,41.073,35.909,34.764,32.976,28.376z M19.769,53.77
		c0.546,1.641,0.546,1.641,2.113,1.291c0.22-0.047,0.437-0.103,0.656-0.154c2.139-0.512,4.276-1.022,6.455-1.545
		c-0.195-0.426-0.371-0.807-0.562-1.223C25.542,52.684,22.66,53.227,19.769,53.77z M41.156,40.887
		c0.852-1.841,0.867-3.521-0.041-5.162c-0.756-1.363-1.906-2.244-3.539-2.629C38.781,35.716,39.931,38.219,41.156,40.887z
		 M7.083,49.46c0.615,1.339,1.199,2.61,1.778,3.872c0.653-0.3,1.258-0.578,1.879-0.863c-0.6-1.307-1.185-2.578-1.779-3.871
		C8.319,48.893,7.714,49.17,7.083,49.46z"/>
	<path fill="#FF7B7B" d="M73.619,4.163c-14.088,0-20.473,0-34.497,0c0,8.574,0,10.983,0,19.536c2.685,0,5.323-0.001,7.96,0.001
		c0.863,0,1.17,0.311,1.173,1.174c0.003,1.989,0.001,2.445,0.005,4.433c0,0.158,0.021,0.316,0.042,0.587
		c0.192-0.215,4.275-3.678,6.521-5.562c0.457-0.385,0.82-0.647,1.438-0.646c8.029,0.021,8.404,0.014,16.434,0.014
		c0.3,0,0.601,0,0.927,0C73.619,15.117,73.619,12.722,73.619,4.163z M48.168,32.723c-0.318,0.35-0.67,0.584-1.156,0.393
		c-0.479-0.19-0.599-0.586-0.596-1.068c0.008-2.466,0.002-3.4,0.002-5.867c0-0.189,0-0.378,0-0.646c-0.232,0-0.434,0-0.636,0
		c-2.447,0-4.896,0.001-7.341-0.001c-0.9,0-1.199-0.3-1.199-1.204c-0.001-8.986-0.001-11.847,0-20.833
		c0-0.907,0.299-1.21,1.194-1.21c14.511-0.001,21.367-0.001,35.878,0c0.855,0,1.164,0.314,1.166,1.18
		c0.004,1.414,0.002,14.093,0.002,20.728c0,1.088-0.256,1.339-1.355,1.339c-8.336,0.001-9.018-0.001-17.354,0.009
		c-0.244,0-0.566,0.048-0.717,0.206C54.995,26.844,49.033,31.775,48.168,32.723z"/>
	<g>
		<path fill="#635378" d="M44.389,8.462c0,0.518,0.42,0.938,0.938,0.938h20.54c0.518,0,0.938-0.42,0.938-0.938
			s-0.42-0.938-0.938-0.938h-20.54C44.809,7.524,44.389,7.944,44.389,8.462C44.389,8.462,44.389,7.944,44.389,8.462z"/>
	</g>
	<g>
		<path fill="#635378" d="M44.389,13.074c0,0.518,0.42,0.938,0.938,0.938h20.538c0.519,0,0.938-0.42,0.938-0.938
			c0-0.518-0.42-0.938-0.938-0.938H45.328C44.809,12.135,44.389,12.556,44.389,13.074C44.389,13.074,44.389,12.556,44.389,13.074z"
			/>
	</g>
	<g>
		<path fill="#635378" d="M44.389,17.82c0,0.518,0.42,0.938,0.938,0.938h9.33c0.519,0,0.938-0.42,0.938-0.938
			s-0.421-0.938-0.938-0.938h-9.33C44.809,16.881,44.389,17.302,44.389,17.82C44.389,17.82,44.389,17.302,44.389,17.82z"/>
	</g>
</g>
</svg>
