<svg xmlns="http://www.w3.org/2000/svg" width="48.004" height="48" viewBox="0 0 48.004 48"><circle fill="#1F1034" cx="24.002" cy="24" r="23"/><path fill="#FFF" d="M22.592 38v-2.483c-2.88-.455-5.536-1.76-7.962-3.913l3.162-3.844c1.77 1.542 3.37 2.53 4.8 2.958v-5.066c-2.383-.613-4.13-1.436-5.24-2.468-1.113-1.032-1.667-2.518-1.667-4.456 0-1.94.635-3.538 1.904-4.798s2.937-2.012 5.002-2.262V10h3.605v1.736c2.267.317 4.523 1.258 6.77 2.822l-2.79 4.014c-1.43-1.018-2.756-1.7-3.98-2.04v4.9c2.448.636 4.257 1.485 5.426 2.55 1.168 1.068 1.754 2.574 1.754 4.526 0 1.95-.654 3.56-1.956 4.83-1.305 1.27-3.047 2.028-5.222 2.278V38h-3.606zm0-21.604c-.978.34-1.465.965-1.465 1.87 0 .907.487 1.6 1.465 2.076v-3.946zm5.34 12.384c0-.477-.124-.873-.375-1.19-.25-.318-.703-.613-1.36-.887v4.185c1.156-.36 1.734-1.065 1.734-2.108z"/></svg>