<?xml version="1.0" encoding="utf-8"?>
<!-- Generator: Adobe Illustrator 16.0.4, SVG Export Plug-In . SVG Version: 6.00 Build 0)  -->
<!DOCTYPE svg PUBLIC "-//W3C//DTD SVG 1.1//EN" "http://www.w3.org/Graphics/SVG/1.1/DTD/svg11.dtd">
<svg version="1.1" id="Layer_1" xmlns="http://www.w3.org/2000/svg" xmlns:xlink="http://www.w3.org/1999/xlink" x="0px" y="0px"
	 width="24px" height="38.334px" viewBox="0 0 24 38.334" enable-background="new 0 0 24 38.334" xml:space="preserve">
<g>
	<g>
		<path fill="#635378" d="M12,14.219c-2.2,0-3.991-1.788-3.991-3.984c0-2.196,1.79-3.985,3.991-3.985s3.991,1.788,3.991,3.984
			C15.991,12.43,14.201,14.219,12,14.219z M12,8.25c-1.098,0-1.991,0.89-1.991,1.984c0,1.094,0.894,1.984,1.991,1.984
			c1.098,0,1.991-0.89,1.991-1.984C13.991,9.14,13.098,8.25,12,8.25z"/>
	</g>
	<g>
		<path fill="#635378" d="M10.765,36.386c-0.142,0-0.283-0.029-0.415-0.091c-0.311-0.142-0.526-0.431-0.575-0.769L7.512,19.633
			c-3.082-1.842-5.047-4.995-5.047-8.158c0-5.253,4.277-9.526,9.534-9.526s9.534,4.273,9.534,9.526c0,3.087-1.916,6.214-4.913,8.07
			l-1.203,4.121c-0.078,0.269-0.265,0.49-0.515,0.614l-0.621,0.311l1.041,1.799c0.262,0.451,0.132,1.028-0.299,1.324l-0.844,0.582
			l0.887,1.352c0.207,0.314,0.22,0.722,0.031,1.049l-0.834,1.445v1.637c0,0.34-0.174,0.656-0.459,0.841l-2.5,1.608
			C11.143,36.332,10.955,36.386,10.765,36.386z M12,3.948c-4.154,0-7.534,3.376-7.534,7.526c0,3.145,2.393,5.548,4.442,6.651
			c0.279,0.15,0.471,0.425,0.516,0.739L11.536,33.7l0.729-0.471v-1.357c0-0.176,0.046-0.348,0.134-0.5l0.66-1.145l-1.085-1.652
			c-0.298-0.454-0.179-1.062,0.269-1.372l0.889-0.612l-1.111-1.919c-0.138-0.237-0.172-0.524-0.093-0.788
			c0.08-0.265,0.265-0.484,0.512-0.607l1.183-0.59l1.19-4.081c0.072-0.249,0.239-0.46,0.465-0.588
			c1.965-1.119,4.259-3.504,4.259-6.543C19.534,7.325,16.154,3.948,12,3.948z"/>
	</g>
</g>
</svg>
