<?xml version="1.0" encoding="utf-8"?>
<!-- Generator: Adobe Illustrator 16.0.4, SVG Export Plug-In . SVG Version: 6.00 Build 0)  -->
<!DOCTYPE svg PUBLIC "-//W3C//DTD SVG 1.1//EN" "http://www.w3.org/Graphics/SVG/1.1/DTD/svg11.dtd">
<svg version="1.1" id="Layer_1" xmlns="http://www.w3.org/2000/svg" xmlns:xlink="http://www.w3.org/1999/xlink" x="0px" y="0px"
	 width="51.667px" height="48px" viewBox="0 0 51.667 48" enable-background="new 0 0 51.667 48" xml:space="preserve">
<g>
	<path fill="#FFFFFF" d="M25.595,27.052c0.771,0,1.501-0.3,2.048-0.857c0.545-0.547,0.84-1.272,0.84-2.045
		c-0.004-0.768-0.308-1.491-0.855-2.038c-0.546-0.542-1.267-0.836-2.032-0.836c-0.779,0-1.508,0.3-2.053,0.853
		c-0.543,0.552-0.842,1.28-0.836,2.049c0.004,0.771,0.308,1.491,0.854,2.037C24.106,26.752,24.83,27.052,25.595,27.052z"/>
	<path fill="#FFFFFF" d="M25.667,3.668C14.436,3.668,5.333,12.773,5.333,24c0,11.23,9.103,20.332,20.334,20.332
		c11.229,0,20.334-9.102,20.334-20.332C46.001,12.773,36.897,3.668,25.667,3.668z M30.492,28.267
		c-0.1,0.215-0.237,0.355-0.445,0.465c-5.816,3.059-16.621,7.994-16.621,7.994s4.738-11.24,7.358-16.78
		c0.125-0.268,0.298-0.438,0.554-0.571c5.76-3.027,16.596-8.226,16.596-8.226S33.302,22.326,30.492,28.267z"/>
</g>
</svg>
